REM DIRINDEX 1\2,1\3,1\4,1\5
REM DIRNAME "folder01","folder02","folder03","folder04","folder05"
TITLE ""
FILE "P1Q_j_1614-1627.mp3" MP3
  TRACK 01 AUDIO
    TITLE "0:"
    INDEX 01 00:00:00
  TRACK 02 AUDIO
    TITLE "3:cjc173_0042"
    INDEX 01 00:00:12
  TRACK 03 AUDIO
    TITLE "0:"
    INDEX 01 00:01:35
  TRACK 04 AUDIO
    TITLE "4:cjc173_0043"
    INDEX 01 00:01:57
  TRACK 05 AUDIO
    TITLE "0:"
    INDEX 01 00:05:41
  TRACK 06 AUDIO
    TITLE "5:cjc173_0044"
    INDEX 01 00:05:60
  TRACK 07 AUDIO
    TITLE "0:"
    INDEX 01 00:11:49
  TRACK 08 AUDIO
    TITLE "3:cjc173_0045"
    INDEX 01 00:12:17
  TRACK 09 AUDIO
    TITLE "0:"
    INDEX 01 00:13:38
  TRACK 10 AUDIO
    TITLE "4:cjc173_0046"
    INDEX 01 00:13:60
  TRACK 11 AUDIO
    TITLE "0:"
    INDEX 01 00:19:66
  TRACK 12 AUDIO
    TITLE "5:cjc173_0047"
    INDEX 01 00:20:11
  TRACK 13 AUDIO
    TITLE "0:"
    INDEX 01 00:25:02
  TRACK 14 AUDIO
    TITLE "3:cjc173_0048"
    INDEX 01 00:25:46
  TRACK 15 AUDIO
    TITLE "0:"
    INDEX 01 00:26:74
  TRACK 16 AUDIO
    TITLE "4:cjc173_0049"
    INDEX 01 00:27:19
  TRACK 17 AUDIO
    TITLE "0:"
    INDEX 01 00:29:20
  TRACK 18 AUDIO
    TITLE "5:cjc173_0050"
    INDEX 01 00:29:39
  TRACK 19 AUDIO
    TITLE "0:"
    INDEX 01 00:34:33
  TRACK 20 AUDIO
    TITLE "3:cjc173_0051"
    INDEX 01 00:35:05
  TRACK 21 AUDIO
    TITLE "0:"
    INDEX 01 00:36:71
  TRACK 22 AUDIO
    TITLE "4:cjc173_0052"
    INDEX 01 00:37:13
  TRACK 23 AUDIO
    TITLE "0:"
    INDEX 01 00:39:44
  TRACK 24 AUDIO
    TITLE "5:cjc173_0053"
    INDEX 01 00:39:63
  TRACK 25 AUDIO
    TITLE "0:"
    INDEX 01 00:44:49
  TRACK 26 AUDIO
    TITLE "3:cjc173_0054"
    INDEX 01 00:45:17
  TRACK 27 AUDIO
    TITLE "0:"
    INDEX 01 00:47:22
  TRACK 28 AUDIO
    TITLE "4:cjc173_0055"
    INDEX 01 00:47:41
  TRACK 29 AUDIO
    TITLE "0:"
    INDEX 01 00:49:62
  TRACK 30 AUDIO
    TITLE "5:cjc173_0056"
    INDEX 01 00:50:06
  TRACK 31 AUDIO
    TITLE "0:"
    INDEX 01 00:53:73
  TRACK 32 AUDIO
    TITLE "3:cjc173_0057"
    INDEX 01 00:54:43
  TRACK 33 AUDIO
    TITLE "0:"
    INDEX 01 00:56:19
  TRACK 34 AUDIO
    TITLE "4:cjc173_0058"
    INDEX 01 00:56:40
  TRACK 35 AUDIO
    TITLE "0:"
    INDEX 01 01:01:35
  TRACK 36 AUDIO
    TITLE "5:cjc173_0059"
    INDEX 01 01:01:55
  TRACK 37 AUDIO
    TITLE "0:"
    INDEX 01 01:06:48
  TRACK 38 AUDIO
    TITLE "3:cjc173_0060"
    INDEX 01 01:07:18
  TRACK 39 AUDIO
    TITLE "0:"
    INDEX 01 01:09:04
  TRACK 40 AUDIO
    TITLE "4:cjc173_0061"
    INDEX 01 01:09:23
  TRACK 41 AUDIO
    TITLE "0:"
    INDEX 01 01:13:03
  TRACK 42 AUDIO
    TITLE "5:cjc173_0062"
    INDEX 01 01:13:23
  TRACK 43 AUDIO
    TITLE "0:"
    INDEX 01 01:18:26
  TRACK 44 AUDIO
    TITLE "3:cjc173_0063"
    INDEX 01 01:18:71
  TRACK 45 AUDIO
    TITLE "0:"
    INDEX 01 01:20:62
  TRACK 46 AUDIO
    TITLE "4:cjc173_0064"
    INDEX 01 01:21:07
  TRACK 47 AUDIO
    TITLE "0:"
    INDEX 01 01:25:40
  TRACK 48 AUDIO
    TITLE "5:cjc173_0065"
    INDEX 01 01:25:61
  TRACK 49 AUDIO
    TITLE "0:"
    INDEX 01 01:28:30
  TRACK 50 AUDIO
    TITLE "3:cjc173_0066"
    INDEX 01 01:29:00
  TRACK 51 AUDIO
    TITLE "0:"
    INDEX 01 01:30:33
  TRACK 52 AUDIO
    TITLE "4:cjc173_0067"
    INDEX 01 01:30:55
  TRACK 53 AUDIO
    TITLE "0:"
    INDEX 01 01:33:39
  TRACK 54 AUDIO
    TITLE "5:cjc173_0068"
    INDEX 01 01:33:59
  TRACK 55 AUDIO
    TITLE "0:"
    INDEX 01 01:37:59
  TRACK 56 AUDIO
    TITLE "3:cjc173_0069"
    INDEX 01 01:38:29
  TRACK 57 AUDIO
    TITLE "0:"
    INDEX 01 01:39:42
  TRACK 58 AUDIO
    TITLE "4:cjc173_0070"
    INDEX 01 01:39:64
  TRACK 59 AUDIO
    TITLE "0:"
    INDEX 01 01:42:72
  TRACK 60 AUDIO
    TITLE "5:cjc173_0071"
    INDEX 01 01:43:16
  TRACK 61 AUDIO
    TITLE "0:"
    INDEX 01 01:47:06
  TRACK 62 AUDIO
    TITLE "3:cjc173_0072"
    INDEX 01 01:47:51
  TRACK 63 AUDIO
    TITLE "0:"
    INDEX 01 01:49:05
  TRACK 64 AUDIO
    TITLE "4:cjc173_0073"
    INDEX 01 01:49:27
  TRACK 65 AUDIO
    TITLE "0:"
    INDEX 01 01:53:58
  TRACK 66 AUDIO
    TITLE "5:cjc173_0074"
    INDEX 01 01:54:02
  TRACK 67 AUDIO
    TITLE "0:"
    INDEX 01 01:59:04
  TRACK 68 AUDIO
    TITLE "3:cjc173_0075"
    INDEX 01 01:59:51
  TRACK 69 AUDIO
    TITLE "0:"
    INDEX 01 02:01:10
  TRACK 70 AUDIO
    TITLE "4:cjc173_0076"
    INDEX 01 02:01:30
  TRACK 71 AUDIO
    TITLE "0:"
    INDEX 01 02:04:54
  TRACK 72 AUDIO
    TITLE "5:cjc173_0077"
    INDEX 01 02:04:73
  TRACK 73 AUDIO
    TITLE "0:"
    INDEX 01 02:09:43
  TRACK 74 AUDIO
    TITLE "3:cjc173_0078"
    INDEX 01 02:10:11
  TRACK 75 AUDIO
    TITLE "0:"
    INDEX 01 02:12:00
  TRACK 76 AUDIO
    TITLE "4:cjc173_0079"
    INDEX 01 02:12:20
  TRACK 77 AUDIO
    TITLE "0:"
    INDEX 01 02:16:74
  TRACK 78 AUDIO
    TITLE "5:cjc173_0080"
    INDEX 01 02:17:17
  TRACK 79 AUDIO
    TITLE "0:"
    INDEX 01 02:22:50
  TRACK 80 AUDIO
    TITLE "3:cjc173_0081"
    INDEX 01 02:23:18
  TRACK 81 AUDIO
    TITLE "0:"
    INDEX 01 02:24:52
  TRACK 82 AUDIO
    TITLE "4:cjc173_0082"
    INDEX 01 02:24:72
  TRACK 83 AUDIO
    TITLE "0:"
    INDEX 01 02:28:70
  TRACK 84 AUDIO
    TITLE "5:cjc173_0083"
    INDEX 01 02:29:14
  TRACK 85 AUDIO
    TITLE "0:"
    INDEX 01 02:34:10
